<svg width="1440" height="2615" viewBox="0 0 1440 2615" fill="none" xmlns="http://www.w3.org/2000/svg">
<g opacity="0.29" filter="url(#filter0_f_11_6932)">
<path d="M335.164 225.07L-63 623.234L22.9135 709.147C205.638 891.872 724.575 938.339 993.734 663.736L1503.85 153.618L1424.05 73.8119C1129.57 -220.663 746.991 57.1949 335.164 225.07Z" fill="url(#paint0_linear_11_6932)"/>
</g>
<g opacity="0.39" filter="url(#filter1_f_11_6932)">
<path d="M563.526 0.490723H0.4375V121.991C0.4375 380.403 334.524 780.204 719.022 776.354H1440.44V663.491C1440.44 247.041 973.438 172.991 563.526 0.490723Z" fill="url(#paint1_linear_11_6932)"/>
</g>
<g opacity="0.29" filter="url(#filter2_f_11_6932)">
<path d="M1235.53 1028.7L1767.87 1532.57L1653.01 1641.3C1408.71 1872.53 714.901 1931.34 355.042 1583.83L-326.974 938.275L-220.275 837.28C173.431 464.623 684.932 816.251 1235.53 1028.7Z" fill="url(#paint2_linear_11_6932)"/>
</g>
<g opacity="0.29" filter="url(#filter3_f_11_6932)">
<path d="M155.175 1850.75L-429 2434.92L-302.95 2560.97C-34.861 2829.06 726.509 2897.24 1121.41 2494.35L1869.84 1745.92L1752.75 1628.83C1320.71 1196.78 759.396 1604.45 155.175 1850.75Z" fill="url(#paint3_linear_11_6932)"/>
</g>
<g opacity="0.39" filter="url(#filter4_f_11_6932)">
<path d="M1056.93 931.664L1636.53 1199.83L1581.75 1318.23C1465.23 1570.06 941.086 1800.57 547.051 1613.71L-195.517 1270.15L-144.629 1160.16C43.1417 754.316 557.223 904.555 1056.93 931.664Z" fill="url(#paint4_linear_11_6932)"/>
</g>
<g opacity="0.39" filter="url(#filter5_f_11_6932)">
<path d="M386.571 1574.91L-424.732 1731.38L-390.955 1906.51C-319.117 2279 273.384 2762.44 826.3 2650.05L1865.72 2449.58L1834.35 2286.9C1718.57 1686.61 1025.13 1709.65 386.571 1574.91Z" fill="url(#paint5_linear_11_6932)"/>
</g>
<defs>
<filter id="filter0_f_11_6932" x="-357" y="-349.429" width="2154.85" height="1501.37" filterUnits="userSpaceOnUse" color-interpolation-filters="sRGB">
<feFlood flood-opacity="0" result="BackgroundImageFix"/>
<feBlend mode="normal" in="SourceGraphic" in2="BackgroundImageFix" result="shape"/>
<feGaussianBlur stdDeviation="147" result="effect1_foregroundBlur_11_6932"/>
</filter>
<filter id="filter1_f_11_6932" x="-293.562" y="-293.509" width="2028" height="1363.89" filterUnits="userSpaceOnUse" color-interpolation-filters="sRGB">
<feFlood flood-opacity="0" result="BackgroundImageFix"/>
<feBlend mode="normal" in="SourceGraphic" in2="BackgroundImageFix" result="shape"/>
<feGaussianBlur stdDeviation="147" result="effect1_foregroundBlur_11_6932"/>
</filter>
<filter id="filter2_f_11_6932" x="-620.975" y="379.726" width="2682.85" height="1743.87" filterUnits="userSpaceOnUse" color-interpolation-filters="sRGB">
<feFlood flood-opacity="0" result="BackgroundImageFix"/>
<feBlend mode="normal" in="SourceGraphic" in2="BackgroundImageFix" result="shape"/>
<feGaussianBlur stdDeviation="147" result="effect1_foregroundBlur_11_6932"/>
</filter>
<filter id="filter3_f_11_6932" x="-723" y="1145.21" width="2886.84" height="1928.07" filterUnits="userSpaceOnUse" color-interpolation-filters="sRGB">
<feFlood flood-opacity="0" result="BackgroundImageFix"/>
<feBlend mode="normal" in="SourceGraphic" in2="BackgroundImageFix" result="shape"/>
<feGaussianBlur stdDeviation="147" result="effect1_foregroundBlur_11_6932"/>
</filter>
<filter id="filter4_f_11_6932" x="-489.518" y="588.158" width="2420.05" height="1387.65" filterUnits="userSpaceOnUse" color-interpolation-filters="sRGB">
<feFlood flood-opacity="0" result="BackgroundImageFix"/>
<feBlend mode="normal" in="SourceGraphic" in2="BackgroundImageFix" result="shape"/>
<feGaussianBlur stdDeviation="147" result="effect1_foregroundBlur_11_6932"/>
</filter>
<filter id="filter5_f_11_6932" x="-718.732" y="1280.91" width="2878.46" height="1679.69" filterUnits="userSpaceOnUse" color-interpolation-filters="sRGB">
<feFlood flood-opacity="0" result="BackgroundImageFix"/>
<feBlend mode="normal" in="SourceGraphic" in2="BackgroundImageFix" result="shape"/>
<feGaussianBlur stdDeviation="147" result="effect1_foregroundBlur_11_6932"/>
</filter>
<linearGradient id="paint0_linear_11_6932" x1="-45.3544" y1="623.263" x2="1502.56" y2="149.391" gradientUnits="userSpaceOnUse">
<stop stop-color="#FFAA97"/>
<stop offset="1" stop-color="#FF5F8F"/>
</linearGradient>
<linearGradient id="paint1_linear_11_6932" x1="-208.563" y1="640.991" x2="1424.68" y2="-3.96967" gradientUnits="userSpaceOnUse">
<stop stop-color="#AEDDFF"/>
<stop offset="1" stop-color="#BBA3FF"/>
</linearGradient>
<linearGradient id="paint2_linear_11_6932" x1="1744.28" y1="1532.61" x2="-304.848" y2="869.864" gradientUnits="userSpaceOnUse">
<stop stop-color="#FFAA97"/>
<stop offset="1" stop-color="#FF5F8F"/>
</linearGradient>
<linearGradient id="paint3_linear_11_6932" x1="-403.111" y1="2434.97" x2="1867.94" y2="1739.72" gradientUnits="userSpaceOnUse">
<stop stop-color="#FFAA97"/>
<stop offset="1" stop-color="#FF5F8F"/>
</linearGradient>
<linearGradient id="paint4_linear_11_6932" x1="1562.87" y1="1923.54" x2="226.999" y2="467.253" gradientUnits="userSpaceOnUse">
<stop stop-color="#AEDDFF"/>
<stop offset="1" stop-color="#BBA3FF"/>
</linearGradient>
<linearGradient id="paint5_linear_11_6932" x1="-547.802" y1="2712.69" x2="1626.49" y2="1329.82" gradientUnits="userSpaceOnUse">
<stop stop-color="#AEDDFF"/>
<stop offset="1" stop-color="#BBA3FF"/>
</linearGradient>
</defs>
</svg>
