<svg width="222" height="221" viewBox="0 0 222 221" fill="none" xmlns="http://www.w3.org/2000/svg">
<g clip-path="url(#clip0_8_6442)">
<path d="M0.890625 110.5C0.890625 157.674 30.458 197.95 72.0725 213.8C71.0581 205.172 69.9833 190.945 72.3013 180.965C74.2997 172.38 85.203 126.285 85.203 126.285C85.203 126.285 81.9139 119.703 81.9139 109.948C81.9139 94.6631 90.7755 83.2419 101.817 83.2419C111.209 83.2419 115.737 90.2906 115.737 98.7335C115.737 108.173 109.724 122.279 106.621 135.367C104.035 146.318 112.12 155.244 122.911 155.244C142.46 155.244 157.498 134.624 157.498 104.867C157.498 78.5197 138.567 60.1146 111.537 60.1146C80.2521 60.1146 61.8771 83.5872 61.8771 107.85C61.8771 117.307 65.5159 127.438 70.0653 132.954C70.6401 133.562 70.9599 134.366 70.9588 135.203C70.9588 135.505 70.9157 135.811 70.8337 136.105C69.9963 139.588 68.1316 147.056 67.7777 148.579C67.2856 150.591 66.1849 151.022 64.0914 150.047C50.3566 143.654 41.7713 123.57 41.7713 107.44C41.7713 72.7314 66.9791 40.8721 114.442 40.8721C152.604 40.8721 182.266 68.0654 182.266 104.401C182.266 142.312 158.366 172.829 125.182 172.829C114.028 172.829 103.561 167.023 99.9694 160.182C99.9694 160.182 94.453 181.198 93.115 186.335C90.5208 196.319 83.3167 208.953 78.8492 216.122C89.1439 219.299 100.064 221 111.391 221C172.416 221 221.891 171.521 221.891 110.5C221.891 49.479 172.416 0 111.391 0C50.3653 0 0.890625 49.4746 0.890625 110.5Z" fill="white"/>
</g>
<defs>
<clipPath id="clip0_8_6442">
<rect width="221" height="221" fill="white" transform="translate(0.890625)"/>
</clipPath>
</defs>
</svg>
