<svg width="62" height="63" viewBox="0 0 62 63" fill="none" xmlns="http://www.w3.org/2000/svg">
<g clip-path="url(#clip0_1_91)">
<path d="M0 31.4999C0 44.6868 8.26518 55.9456 19.898 60.3762C19.6144 57.9642 19.314 53.9873 19.9619 51.1976C20.5206 48.7977 23.5684 35.9125 23.5684 35.9125C23.5684 35.9125 22.649 34.0724 22.649 31.3455C22.649 27.0729 25.1261 23.8803 28.2126 23.8803C30.8382 23.8803 32.1039 25.8507 32.1039 28.2108C32.1039 30.8496 30.4231 34.7927 29.5556 38.4511C28.8328 41.5123 31.0928 44.0075 34.1093 44.0075C39.5739 44.0075 43.7777 38.2436 43.7777 29.9253C43.7777 22.5603 38.4856 17.4153 30.9299 17.4153C22.1845 17.4153 17.048 23.9768 17.048 30.7591C17.048 33.4027 18.0651 36.2346 19.3369 37.7766C19.4976 37.9465 19.587 38.1715 19.5867 38.4053C19.5867 38.4897 19.5746 38.5754 19.5517 38.6575C19.3176 39.6312 18.7963 41.7186 18.6974 42.1445C18.5599 42.7068 18.2522 42.8275 17.667 42.5548C13.8276 40.7678 11.4277 35.1535 11.4277 30.6445C11.4277 20.9422 18.4742 12.0363 31.7419 12.0363C42.4094 12.0363 50.7012 19.6379 50.7012 29.795C50.7012 40.3925 44.0202 48.9232 34.7439 48.9232C31.6261 48.9232 28.7001 47.3003 27.6962 45.3879C27.6962 45.3879 26.1542 51.2628 25.7801 52.6986C25.055 55.4895 23.0412 59.0212 21.7923 61.0253C24.6701 61.9134 27.7227 62.3888 30.8888 62.3888C47.9477 62.3888 61.7777 48.5576 61.7777 31.4999C61.7777 14.4423 47.9477 0.611084 30.8888 0.611084C13.83 0.611084 0 14.4411 0 31.4999Z" fill="#DACCFF"/>
</g>
<defs>
<clipPath id="clip0_1_91">
<rect width="61.7777" height="61.7777" fill="white" transform="translate(0 0.611084)"/>
</clipPath>
</defs>
</svg>
