<svg width="91" height="49" viewBox="0 0 91 49" fill="none" xmlns="http://www.w3.org/2000/svg">
<path d="M80.9887 10.9962L74.0715 0.554979H77.704L82.5563 8.16399L87.483 0.554979H90.9917L84.0742 10.9226V17.7935H80.9887V10.9962ZM52.7741 0.555039H55.8346V15.0348H64.992V17.7936H52.7741V0.555039ZM25.2305 9.22325V9.17384C25.2305 4.32271 29.0126 0.259521 34.3627 0.259521C39.7126 0.259521 43.4452 4.2733 43.4452 9.12513V9.17382C43.4452 14.0254 39.6624 18.0881 34.313 18.0881C28.9631 18.0881 25.2305 14.0746 25.2305 9.22325ZM40.2351 9.22322V9.17381C40.2351 5.82491 37.7717 3.04232 34.313 3.04232C30.854 3.04232 28.4406 5.77573 28.4406 9.1251V9.17379C28.4406 12.5236 30.9037 15.2815 34.3627 15.2815C37.8214 15.2815 40.2351 12.5724 40.2351 9.22322ZM3.42816 0.554979H10.2957C14.3768 0.554979 16.9149 2.84513 16.9149 6.31732V6.36693C16.9149 10.233 13.7797 12.2523 9.94769 12.2523H6.4887V17.7935H3.42816V0.554979ZM10.0471 9.5187C12.3616 9.5187 13.8042 8.23834 13.8042 6.44037V6.39122C13.8042 4.37186 12.3364 3.31335 10.0471 3.31335H6.4887V9.51873L10.0471 9.5187Z" fill="#DACCFF"/>
<path d="M76.7196 31.2076H89.6343V33.9163H79.7799V38.3988H88.5139V41.1073H79.7799V45.737H89.7575V48.4462H76.7196V31.2076ZM52.869 31.2076H60.6326C62.8223 31.2076 64.5397 31.8478 65.6592 32.9315C66.5799 33.8674 67.1024 35.1478 67.1024 36.6502V36.6994C67.1024 39.5316 65.3855 41.2303 62.9719 41.9197L67.6744 48.4462H64.0417L59.762 42.4373H55.9298V48.4462H52.869V31.2076ZM60.4091 39.7526C62.5984 39.7526 63.992 38.62 63.992 36.8714V36.8222C63.992 34.9753 62.6486 33.966 60.3837 33.966H55.9298V39.7526L60.4091 39.7526ZM25.0484 39.8758V39.8264C25.0484 34.9753 28.8305 30.9121 34.1808 30.9121C39.5312 30.9121 43.2629 34.9259 43.2629 39.7777V39.8264C43.2629 44.678 39.4806 48.7407 34.1311 48.7407C28.7813 48.7407 25.0484 44.7272 25.0484 39.8758ZM40.053 39.8758V39.8264C40.053 36.4775 37.5896 33.6949 34.1311 33.6949C30.6722 33.6949 28.2585 36.4283 28.2585 39.7777V39.8264C28.2585 43.1762 30.7221 45.9341 34.1808 45.9341C37.6393 45.9341 40.053 43.2249 40.053 39.8758ZM0.899475 31.2076H4.28333L9.53409 44.4561L14.7599 31.2076H18.0686L10.8525 48.5687H8.14075L0.899475 31.2076Z" fill="#DACCFF"/>
</svg>
