<svg width="219" height="118" viewBox="0 0 219 118" fill="none" xmlns="http://www.w3.org/2000/svg">
<path d="M194.389 26.2126L177.611 0.887051H186.422L198.192 19.3429L210.141 0.887051H218.652L201.873 26.034V42.6997H194.389V26.2126ZM125.954 0.887198H133.377V36.0083H155.589V42.6999H125.954V0.887198ZM59.1459 21.9122V21.7924C59.1459 10.0258 68.3194 0.17041 81.2963 0.17041C94.2727 0.17041 103.326 9.90597 103.326 21.6742V21.7923C103.326 33.56 94.151 43.4143 81.1758 43.4143C68.1995 43.4143 59.1459 33.6794 59.1459 21.9122ZM95.5401 21.9122V21.7923C95.5401 13.6694 89.5651 6.92018 81.1758 6.92018C72.7859 6.92018 66.9321 13.5502 66.9321 21.6742V21.7923C66.9321 29.9174 72.9065 36.6067 81.2963 36.6067C89.6856 36.6067 95.5401 30.0356 95.5401 21.9122ZM6.26367 0.887051H22.9212C32.8201 0.887051 38.9761 6.4419 38.9761 14.8638V14.9841C38.9761 24.3613 31.3716 29.2593 22.077 29.2593H13.6871V42.6997H6.26367V0.887051ZM22.318 22.6288C27.932 22.6288 31.431 19.5233 31.431 15.1623V15.0431C31.431 10.145 27.8709 7.57758 22.318 7.57758H13.6871V22.6289L22.318 22.6288Z" fill="white"/>
<path d="M184.035 75.2358H215.36V81.8059H191.458V92.6782H212.643V99.2477H191.458V110.477H215.659V117.049H184.035V75.2358ZM126.185 75.2358H145.015C150.327 75.2358 154.492 76.7886 157.208 79.4171C159.441 81.6872 160.708 84.7928 160.708 88.4371V88.5563C160.708 95.4259 156.544 99.5461 150.689 101.218L162.096 117.048H153.284L142.904 102.474H133.609V117.049H126.185V75.2358ZM144.473 95.9619C149.784 95.9619 153.164 93.2147 153.164 88.9735V88.8543C153.164 84.3745 149.905 81.9264 144.412 81.9264H133.609V95.9619L144.473 95.9619ZM58.7049 96.2609V96.141C58.7049 84.3744 67.8784 74.519 80.8559 74.519C93.8333 74.519 102.885 84.2546 102.885 96.0229V96.141C102.885 107.909 93.7105 117.763 80.7353 117.763C67.759 117.763 58.7049 108.028 58.7049 96.2609ZM95.099 96.2608V96.1409C95.099 88.0181 89.1241 81.2688 80.7353 81.2688C72.3455 81.2688 66.491 87.8988 66.491 96.0228V96.1409C66.491 104.266 72.4666 110.955 80.8559 110.955C89.2446 110.955 95.099 104.384 95.099 96.2608ZM0.130859 75.2357H8.33851L21.0744 107.37L33.7497 75.2357H41.7751L24.2723 117.346H17.6948L0.130859 75.2357Z" fill="white"/>
</svg>
