<svg width="88" height="88" viewBox="0 0 88 88" fill="none" xmlns="http://www.w3.org/2000/svg">
<path d="M29.3926 64.8376C35.1321 61.5239 42.4714 63.4898 45.7852 69.2292C49.0989 74.9688 47.1321 82.3081 41.3926 85.6218C35.6531 88.9355 28.3137 86.9688 25 81.2292C21.6866 75.4898 23.6533 68.1514 29.3926 64.8376ZM69.2295 41.8376C74.9689 38.524 82.3083 40.4899 85.6221 46.2292C88.9358 51.9688 86.969 59.3081 81.2295 62.6218C75.49 65.9352 68.1515 63.9686 64.8379 58.2292C61.5243 52.4899 63.4904 45.1515 69.2295 41.8376ZM6.39258 24.9998C12.1321 21.6861 19.4715 23.6529 22.7852 29.3923C26.0988 35.1318 24.132 42.4712 18.3926 45.7849C12.6531 49.0985 5.31369 47.1318 2 41.3923C-1.31363 35.6528 0.653099 28.3134 6.39258 24.9998ZM46.2295 1.99976C51.969 -1.31394 59.3083 0.652878 62.6221 6.39233C65.9358 12.1318 63.969 19.4712 58.2295 22.7849C52.4901 26.0982 45.1515 24.1316 41.8379 18.3923C38.5242 12.6529 40.4902 5.31353 46.2295 1.99976Z" fill="#86BFAD"/>
</svg>
