<svg width="23" height="23" viewBox="0 0 23 23" fill="none" xmlns="http://www.w3.org/2000/svg">
<path d="M1.63662 0.824538C2.94681 -0.35906 4.96856 -0.256054 6.15224 1.05403L11.2792 6.72981L16.6884 1.32161C17.9369 0.073047 19.9613 0.0730482 21.2099 1.32161C22.4584 2.57017 22.4584 4.59453 21.2099 5.84309L15.5712 11.4808L20.9169 17.3978C22.1004 18.708 21.9976 20.7298 20.6874 21.9134C19.3771 23.0967 17.3553 22.994 16.1718 21.6839L11.0438 16.0081L5.63662 21.4163C4.38805 22.6649 2.36369 22.6649 1.11513 21.4163C-0.133429 20.1678 -0.13343 18.1434 1.11513 16.8949L6.75283 11.2562L1.4081 5.34016C0.22443 4.02992 0.326372 2.00821 1.63662 0.824538Z" fill="#586A9F"/>
</svg>
