<svg width="175" height="199" viewBox="0 0 175 199" fill="none" xmlns="http://www.w3.org/2000/svg">
<path d="M83.5607 3.35701C84.3373 -1.05084 90.6627 -1.05083 91.4393 3.35703L102.67 67.0957C103.102 69.5453 105.641 71.0112 107.978 70.1601L168.793 48.017C172.998 46.4856 176.161 51.9635 172.732 54.8401L123.148 96.4355C121.242 98.0341 121.242 100.966 123.148 102.564L172.732 144.16C176.161 147.036 172.998 152.514 168.793 150.983L107.978 128.84C105.641 127.989 103.102 129.455 102.67 131.904L91.4393 195.643C90.6627 200.051 84.3373 200.051 83.5607 195.643L72.3299 131.904C71.8983 129.455 69.3593 127.989 67.0221 128.84L6.20739 150.983C2.00174 152.514 -1.16089 147.036 2.26809 144.16L51.852 102.564C53.7576 100.966 53.7576 98.0341 51.852 96.4355L2.26808 54.84C-1.1609 51.9635 2.00175 46.4856 6.2074 48.017L67.0221 70.1601C69.3593 71.0112 71.8983 69.5453 72.3299 67.0957L83.5607 3.35701Z" fill="#3E97F2"/>
</svg>
