<svg width="88" height="88" viewBox="0 0 88 88" fill="none" xmlns="http://www.w3.org/2000/svg">
<path d="M29.3928 64.8379C35.1323 61.5242 42.4716 63.49 45.7854 69.2295C49.0991 74.969 47.1323 82.3084 41.3928 85.6221C35.6533 88.9358 28.3139 86.969 25.0002 81.2295C21.6868 75.4901 23.6535 68.1516 29.3928 64.8379ZM69.2297 41.8379C74.9691 38.5242 82.3085 40.4902 85.6223 46.2295C88.936 51.969 86.9692 59.3084 81.2297 62.6221C75.4902 65.9355 68.1517 63.9689 64.8381 58.2295C61.5246 52.4902 63.4907 45.1517 69.2297 41.8379ZM6.39279 25C12.1323 21.6864 19.4717 23.6531 22.7854 29.3926C26.099 35.1321 24.1323 42.4715 18.3928 45.7851C12.6533 49.0988 5.3139 47.132 2.00021 41.3926C-1.31342 35.6531 0.653312 28.3137 6.39279 25ZM46.2297 1.99999C51.9692 -1.3137 59.3086 0.653114 62.6223 6.39257C65.936 12.1321 63.9692 19.4714 58.2297 22.7851C52.4903 26.0984 45.1518 24.1318 41.8381 18.3926C38.5244 12.6531 40.4904 5.31377 46.2297 1.99999Z" fill="#97BCF7"/>
</svg>
