<svg width="85" height="53" viewBox="0 0 85 53" fill="none" xmlns="http://www.w3.org/2000/svg">
<path d="M12.9383 5.72778L2.04303 5.72778L2.04303 0.865967L29.6298 0.865967V5.72778L18.7041 5.72778V24.1827H12.9383L12.9383 5.72778Z" fill="#DACCFF"/>
<path d="M33.1217 0.865967L38.8875 0.865967V10.0602L50.2181 10.0602V0.865967L55.9778 0.865967V24.1827H50.2181V14.6164L38.8875 14.6164V24.1827H33.1217V0.865967Z" fill="#DACCFF"/>
<path d="M60.237 0.865967L83.0991 0.865967V5.72778L66.0028 5.72778V10.0602L82.7978 10.0602V14.6225L66.0028 14.6225V19.3209H83.0991V24.1827H60.237V0.865967Z" fill="#DACCFF"/>
<path d="M33.1153 28.283H55.9714V33.1478H38.8811V37.4741H55.667V42.0425H38.8811V46.7409H55.9714V51.6027H33.1093L33.1153 28.283Z" fill="#DACCFF"/>
<path d="M58.3459 44.0078H64.4344C64.4009 45.5719 66.4101 47.2056 71.2382 47.2722C75.7285 47.3054 79.1837 46.7064 79.1837 44.6401C79.1837 40.102 58.8361 45.4055 58.8361 35.4126C58.8361 30.6476 63.8286 27.7493 71.2382 27.7493C78.9127 27.7493 84.1427 30.9471 84.2097 35.8785H78.0878C78.1212 34.2781 76.3799 32.6474 71.6949 32.6141C67.64 32.5476 64.6932 33.1799 64.6932 35.1464C64.6932 39.509 85.0042 34.6805 85.0042 44.4404C85.0042 49.2356 79.6768 52.134 71.7649 52.134C63.5851 52.134 58.2455 48.9029 58.3459 44.0078Z" fill="#DACCFF"/>
<path d="M12.9364 44.0755L0.77771 28.283H7.57243L15.8193 39.2894L24.0935 28.2951H30.8943L18.7021 44.0544V51.6179H12.9364L12.9364 44.0755Z" fill="#DACCFF"/>
</svg>
