<svg width="257" height="156" viewBox="0 0 257 156" fill="none" xmlns="http://www.w3.org/2000/svg">
<path d="M37.3161 14.783L4.1875 14.783L4.1875 0L88.0689 0V14.783L54.8477 14.783L54.8477 70.8977H37.3161L37.3161 14.783Z" fill="white"/>
<path d="M98.6855 0L116.217 0V27.9562L150.669 27.9562V0L168.183 0V70.8977H150.669V41.8101H116.217V70.8977H98.6855V0Z" fill="white"/>
<path d="M181.135 0L250.65 0V14.783L198.666 14.783V27.9562L249.734 27.9562V41.8284L198.666 41.8284V56.1147L250.65 56.1147V70.8977H181.135V0Z" fill="white"/>
<path d="M98.6669 83.3638H168.164V98.156H116.199V111.311H167.238V125.201H116.199V139.488H168.164V154.271H98.6484L98.6669 83.3638Z" fill="white"/>
<path d="M175.383 131.179H193.896C193.794 135.935 199.903 140.902 214.584 141.105C228.237 141.206 238.743 139.384 238.743 133.101C238.743 119.303 176.873 135.429 176.873 105.044C176.873 90.5555 192.054 81.7427 214.584 81.7427C237.919 81.7427 253.822 91.4662 254.025 106.461H235.411C235.513 101.594 230.218 96.6361 215.972 96.5349C203.643 96.3325 194.683 98.2551 194.683 104.235C194.683 117.5 256.441 102.818 256.441 132.494C256.441 147.075 240.243 155.888 216.185 155.888C191.313 155.888 175.078 146.063 175.383 131.179Z" fill="white"/>
<path d="M37.3099 131.383L0.339844 83.3638H21.0001L46.0757 116.83L71.2345 83.4006H91.9133L54.8415 131.319L54.8415 154.317H37.3099L37.3099 131.383Z" fill="white"/>
</svg>
